<svg height='300px' width='300px'  fill="#000000" xmlns="http://www.w3.org/2000/svg" xmlns:xlink="http://www.w3.org/1999/xlink" xmlns:sketch="http://www.bohemiancoding.com/sketch/ns" viewBox="0 0 100 100" version="1.1" x="0px" y="0px"><title>Barcode-10</title><desc>Created with Sketch.</desc><g stroke="none" stroke-width="1" fill="none" fill-rule="evenodd" sketch:type="MSPage"><g sketch:type="MSLayerGroup" fill="#000000"><path d="M5,20 L16.4545455,20 L16.4545455,80 L5,80 L5,20 Z M20.2727273,20 L23.5454545,20 L23.5454545,64.6503906 L20.2727273,64.6503906 L20.2727273,20 Z M28.4545455,20 L35,20 L35,64.6503906 L28.4545455,64.6503906 L28.4545455,20 Z M38.8181818,20 L50.2727273,20 L50.2727273,64.6503906 L38.8181818,64.6503906 L38.8181818,20 Z M53.5454545,20 L56.2727273,20 L56.2727273,64.6503906 L53.5454545,64.6503906 L53.5454545,20 Z M59,20 L70.4545455,20 L70.4545455,64.6503906 L59,64.6503906 L59,20 Z M73.1818182,20 L78.0909091,20 L78.0909091,64.6503906 L73.1818182,64.6503906 L73.1818182,20 Z M83,20 L86.2727273,20 L86.2727273,64.6503906 L83,64.6503906 L83,20 Z M88.4545455,20 L95,20 L95,80 L88.4545455,80 L88.4545455,20 Z M27.9916364,75.0025455 L27.9916364,76.4545455 L23.1196364,76.4545455 L23.1196364,75.0025455 L24.8236364,75.0025455 L24.8236364,71.3665455 C24.751636,71.4625459 24.6396371,71.560545 24.4876364,71.6605455 C24.3356356,71.760546 24.1676373,71.854545 23.9836364,71.9425455 C23.7996354,72.0305459 23.6076374,72.1025452 23.4076364,72.1585455 C23.2076354,72.2145457 23.0316371,72.2425455 22.8796364,72.2425455 L22.8796364,70.7425455 C23.0236371,70.7425455 23.1996353,70.6965459 23.4076364,70.6045455 C23.6156374,70.512545 23.8196354,70.4025461 24.0196364,70.2745455 C24.2196374,70.1465448 24.3956356,70.0205461 24.5476364,69.8965455 C24.6996371,69.7725448 24.7916362,69.6745458 24.8236364,69.6025455 L26.4676364,69.6025455 L26.4676364,75.0025455 L27.9916364,75.0025455 Z M28.7596364,76.4545455 C28.7596364,76.0945437 28.7876361,75.7685469 28.8436364,75.4765455 C28.8996366,75.184544 28.9996356,74.9145467 29.1436364,74.6665455 C29.2876371,74.4185442 29.4796352,74.1865465 29.7196364,73.9705455 C29.9596376,73.7545444 30.2676345,73.5425465 30.6436364,73.3345455 C30.963638,73.1585446 31.2496351,73.0045461 31.5016364,72.8725455 C31.7536376,72.7405448 31.9656355,72.618546 32.1376364,72.5065455 C32.3096372,72.3945449 32.4396359,72.280546 32.5276364,72.1645455 C32.6156368,72.0485449 32.6596364,71.9145462 32.6596364,71.7625455 C32.6596364,71.5225443 32.5636373,71.3165463 32.3716364,71.1445455 C32.1796354,70.9725446 31.9036382,70.8865455 31.5436364,70.8865455 C31.3516354,70.8865455 31.1756372,70.9125452 31.0156364,70.9645455 C30.8556356,71.0165457 30.7056371,71.086545 30.5656364,71.1745455 C30.4256357,71.2625459 30.2976369,71.3605449 30.1816364,71.4685455 C30.0656358,71.576546 29.9596368,71.6905449 29.8636364,71.8105455 L28.8316364,70.6225455 C28.9356369,70.5105449 29.0836354,70.3885461 29.2756364,70.2565455 C29.4676373,70.1245448 29.6936351,70.000546 29.9536364,69.8845455 C30.2136377,69.7685449 30.5016348,69.6725458 30.8176364,69.5965455 C31.1336379,69.5205451 31.4716346,69.4825455 31.8316364,69.4825455 C32.2396384,69.4825455 32.6036348,69.532545 32.9236364,69.6325455 C33.243638,69.732546 33.5136353,69.8725446 33.7336364,70.0525455 C33.9536375,70.2325464 34.1216358,70.4485442 34.2376364,70.7005455 C34.3536369,70.9525467 34.4116364,71.226544 34.4116364,71.5225455 C34.4116364,71.8025469 34.3596369,72.0505444 34.2556364,72.2665455 C34.1516358,72.4825465 34.0196372,72.6745446 33.8596364,72.8425455 C33.6996356,73.0105463 33.5256373,73.1565448 33.3376364,73.2805455 C33.1496354,73.4045461 32.9676372,73.514545 32.7916364,73.6105455 C32.6476356,73.6905459 32.4936372,73.778545 32.3296364,73.8745455 C32.1656355,73.9705459 32.0036372,74.0765449 31.8436364,74.1925455 C31.6836356,74.308546 31.537637,74.4345448 31.4056364,74.5705455 C31.2736357,74.7065461 31.1716367,74.8505447 31.0996364,75.0025455 L34.5436364,75.0025455 L34.5436364,76.4545455 L28.7596364,76.4545455 Z M39.6676364,73.6225455 C40.1716389,73.7105459 40.5776348,73.9485435 40.8856364,74.3365455 C41.1936379,74.7245474 41.3476364,75.1985427 41.3476364,75.7585455 C41.3476364,76.1345473 41.2736371,76.4745439 41.1256364,76.7785455 C40.9776356,77.082547 40.7676377,77.3405444 40.4956364,77.5525455 C40.223635,77.7645465 39.8956383,77.9285449 39.5116364,78.0445455 C39.1276344,78.160546 38.6996387,78.2185455 38.2276364,78.2185455 C37.6116333,78.2185455 37.0696387,78.1205464 36.6016364,77.9245455 C36.133634,77.7285445 35.7476379,77.4425473 35.4436364,77.0665455 L36.3556364,75.9265455 C36.5636374,76.1905468 36.8096349,76.3945447 37.0936364,76.5385455 C37.3776378,76.6825462 37.7356342,76.7545455 38.1676364,76.7545455 C38.6556388,76.7545455 39.0296351,76.6585464 39.2896364,76.4665455 C39.5496377,76.2745445 39.6796364,75.9785475 39.6796364,75.5785455 C39.6796364,75.1625434 39.5316378,74.8425466 39.2356364,74.6185455 C38.9396349,74.3945443 38.4916394,74.2825455 37.8916364,74.2825455 L37.5556364,74.2825455 L37.5556364,73.0825455 L37.9276364,73.0825455 C38.4156388,73.0825455 38.795635,72.9725466 39.0676364,72.7525455 C39.3396377,72.5325444 39.4756364,72.2505472 39.4756364,71.9065455 C39.4756364,71.5785438 39.3656375,71.3345463 39.1456364,71.1745455 C38.9256353,71.0145447 38.6356382,70.9345455 38.2756364,70.9345455 C37.9076345,70.9345455 37.5776378,71.0185446 37.2856364,71.1865455 C36.9936349,71.3545463 36.7556373,71.5905439 36.5716364,71.8945455 L35.5636364,70.7665455 C35.683637,70.5825445 35.8436354,70.4165462 36.0436364,70.2685455 C36.2436374,70.1205447 36.4696351,69.992546 36.7216364,69.8845455 C36.9736376,69.7765449 37.2476349,69.6925458 37.5436364,69.6325455 C37.8396378,69.5725452 38.1436348,69.5425455 38.4556364,69.5425455 C38.8636384,69.5425455 39.2356347,69.5945449 39.5716364,69.6985455 C39.907638,69.802546 40.1956352,69.9465445 40.4356364,70.1305455 C40.6756376,70.3145464 40.8616357,70.5365442 40.9936364,70.7965455 C41.125637,71.0565468 41.1916364,71.3465439 41.1916364,71.6665455 C41.1916364,71.9065467 41.1556367,72.1345444 41.0836364,72.3505455 C41.011636,72.5665465 40.907637,72.7625446 40.7716364,72.9385455 C40.6356357,73.1145463 40.4736373,73.2625449 40.2856364,73.3825455 C40.0976354,73.5025461 39.8916375,73.5825453 39.6676364,73.6225455 L39.6676364,73.6225455 Z M45.5596364,77.9785455 L45.5596364,76.1905455 L42.0556364,76.1905455 L42.0556364,74.7625455 L46.0636364,69.6025455 L47.1676364,69.6025455 L47.1676364,74.7505455 L48.2236364,74.7505455 L48.2236364,76.1905455 L47.1676364,76.1905455 L47.1676364,77.9785455 L45.5596364,77.9785455 Z M43.6636364,74.7505455 L45.7396364,74.7505455 L45.7396364,72.0385455 L43.6636364,74.7505455 Z M52.0516364,72.6265455 C52.4516384,72.6265455 52.8236346,72.6925448 53.1676364,72.8245455 C53.5116381,72.9565461 53.8096351,73.1425443 54.0616364,73.3825455 C54.3136376,73.6225467 54.5096357,73.9105438 54.6496364,74.2465455 C54.7896371,74.5825471 54.8596364,74.9545434 54.8596364,75.3625455 C54.8596364,75.7945476 54.7796372,76.1865437 54.6196364,76.5385455 C54.4596356,76.8905472 54.2396378,77.1925442 53.9596364,77.4445455 C53.679635,77.6965467 53.3476383,77.8925448 52.9636364,78.0325455 C52.5796344,78.1725462 52.1636386,78.2425455 51.7156364,78.2425455 C51.0916332,78.2425455 50.5336388,78.1105468 50.0416364,77.8465455 C49.5496339,77.5825441 49.1756376,77.2225477 48.9196364,76.7665455 L49.8436364,75.8065455 C50.0756375,76.118547 50.3576347,76.3665445 50.6896364,76.5505455 C51.021638,76.7345464 51.3676346,76.8265455 51.7276364,76.8265455 C52.1596385,76.8265455 52.513635,76.6965468 52.7896364,76.4365455 C53.0656377,76.1765442 53.2036364,75.8305476 53.2036364,75.3985455 C53.2036364,74.9825434 53.0736377,74.6465467 52.8136364,74.3905455 C52.5536351,74.1345442 52.2236384,74.0065455 51.8236364,74.0065455 C51.559635,74.0065455 51.3136375,74.0665449 51.0856364,74.1865455 C50.8576352,74.3065461 50.675637,74.4705444 50.5396364,74.6785455 L49.1356364,74.6785455 C49.1356364,74.6545453 49.1516362,74.5645462 49.1836364,74.4085455 C49.2156365,74.2525447 49.2556361,74.0525467 49.3036364,73.8085455 C49.3516366,73.5645442 49.4036361,73.292547 49.4596364,72.9925455 C49.5156366,72.692544 49.575636,72.386547 49.6396364,72.0745455 C49.7836371,71.3385418 49.9436355,70.51455 50.1196364,69.6025455 L54.3196364,69.6025455 L54.3196364,71.0665455 L51.2836364,71.0665455 L50.9476364,72.9745455 C51.0436368,72.8705449 51.1836354,72.7865458 51.3676364,72.7225455 C51.5516373,72.6585451 51.779635,72.6265455 52.0516364,72.6265455 L52.0516364,72.6265455 Z M62.0476364,73.6105455 C62.0476364,74.0265475 61.9676372,74.4145437 61.8076364,74.7745455 C61.6476356,75.1345473 61.4296377,75.4485441 61.1536364,75.7165455 C60.877635,75.9845468 60.5496383,76.1945447 60.1696364,76.3465455 C59.7896345,76.4985462 59.3796386,76.5745455 58.9396364,76.5745455 C58.459634,76.5745455 58.0256383,76.4865463 57.6376364,76.3105455 C57.2496344,76.1345446 56.9196377,75.8785471 56.6476364,75.5425455 C56.375635,75.2065438 56.1656371,74.7965479 56.0176364,74.3125455 C55.8696356,73.828543 55.7956364,73.2785485 55.7956364,72.6625455 C55.7956364,71.8865416 55.8736356,71.2005484 56.0296364,70.6045455 C56.1856371,70.0085425 56.4056349,69.5085475 56.6896364,69.1045455 C56.9736378,68.7005434 57.3196343,68.3945465 57.7276364,68.1865455 C58.1356384,67.9785444 58.5916338,67.8745455 59.0956364,67.8745455 C59.631639,67.8745455 60.1276341,67.9905443 60.5836364,68.2225455 C61.0396386,68.4545466 61.4236348,68.7865433 61.7356364,69.2185455 L60.8116364,70.2265455 C60.6196354,69.9225439 60.3716379,69.6865463 60.0676364,69.5185455 C59.7636348,69.3505446 59.4316382,69.2665455 59.0716364,69.2665455 C58.5356337,69.2665455 58.1096379,69.4785433 57.7936364,69.9025455 C57.4776348,70.3265476 57.3116364,70.9265416 57.2956364,71.7025455 C57.4556372,71.414544 57.6916348,71.1865463 58.0036364,71.0185455 C58.3156379,70.8505446 58.6756343,70.7665455 59.0836364,70.7665455 C59.4996384,70.7665455 59.8896345,70.8385447 60.2536364,70.9825455 C60.6176382,71.1265462 60.931635,71.3265442 61.1956364,71.5825455 C61.4596377,71.8385467 61.6676356,72.1405437 61.8196364,72.4885455 C61.9716371,72.8365472 62.0476364,73.2105435 62.0476364,73.6105455 L62.0476364,73.6105455 Z M58.9396364,75.2185455 C59.1556374,75.2185455 59.3576354,75.1765459 59.5456364,75.0925455 C59.7336373,75.008545 59.8996356,74.8925462 60.0436364,74.7445455 C60.1876371,74.5965447 60.3016359,74.4245464 60.3856364,74.2285455 C60.4696368,74.0325445 60.5116364,73.8265465 60.5116364,73.6105455 C60.5116364,73.3945444 60.4696368,73.1925464 60.3856364,73.0045455 C60.3016359,72.8165445 60.1896371,72.6505462 60.0496364,72.5065455 C59.9096357,72.3625447 59.7436373,72.2505459 59.5516364,72.1705455 C59.3596354,72.0905451 59.1556374,72.0505455 58.9396364,72.0505455 C58.7236353,72.0505455 58.5196373,72.0905451 58.3276364,72.1705455 C58.1356354,72.2505459 57.9696371,72.3625447 57.8296364,72.5065455 C57.6896357,72.6505462 57.5776368,72.8165445 57.4936364,73.0045455 C57.4096359,73.1925464 57.3676364,73.3945444 57.3676364,73.6105455 C57.3676364,73.8265465 57.4096359,74.0325445 57.4936364,74.2285455 C57.5776368,74.4245464 57.6916356,74.5945447 57.8356364,74.7385455 C57.9796371,74.8825462 58.1456354,74.998545 58.3336364,75.0865455 C58.5216373,75.1745459 58.7236353,75.2185455 58.9396364,75.2185455 L58.9396364,75.2185455 Z M66.8476364,70.9225455 L62.9716364,70.9225455 L62.9716364,69.4585455 L69.3796364,69.4585455 L65.1436364,77.9785455 L63.3316364,77.9785455 L66.8476364,70.9225455 Z M76.1356364,73.9345455 C76.1356364,74.3345475 76.0536372,74.6945439 75.8896364,75.0145455 C75.7256355,75.3345471 75.5016378,75.6105443 75.2176364,75.8425455 C74.9336349,76.0745466 74.6036382,76.2525448 74.2276364,76.3765455 C73.8516345,76.5005461 73.4516385,76.5625455 73.0276364,76.5625455 C72.6036342,76.5625455 72.2056382,76.4965461 71.8336364,76.3645455 C71.4616345,76.2325448 71.1356378,76.0465467 70.8556364,75.8065455 C70.575635,75.5665443 70.3536372,75.2825471 70.1896364,74.9545455 C70.0256355,74.6265438 69.9436364,74.2665474 69.9436364,73.8745455 C69.9436364,73.6345443 69.983636,73.4125465 70.0636364,73.2085455 C70.1436368,73.0045444 70.2476357,72.8185463 70.3756364,72.6505455 C70.503637,72.4825446 70.6476356,72.3345461 70.8076364,72.2065455 C70.9676372,72.0785448 71.1276356,71.9745459 71.2876364,71.8945455 C70.9836348,71.7505447 70.7276374,71.5345469 70.5196364,71.2465455 C70.3116353,70.958544 70.2076364,70.6425472 70.2076364,70.2985455 C70.2076364,69.9145435 70.2936355,69.5765469 70.4656364,69.2845455 C70.6376372,68.992544 70.861635,68.7465465 71.1376364,68.5465455 C71.4136377,68.3465445 71.7176347,68.194546 72.0496364,68.0905455 C72.381638,67.9865449 72.7116347,67.9345455 73.0396364,67.9345455 C73.367638,67.9345455 73.6996347,67.984545 74.0356364,68.0845455 C74.371638,68.184546 74.677635,68.3345445 74.9536364,68.5345455 C75.2296377,68.7345465 75.4536355,68.980544 75.6256364,69.2725455 C75.7976372,69.5645469 75.8836364,69.9025435 75.8836364,70.2865455 C75.8836364,70.6305472 75.7776374,70.950544 75.5656364,71.2465455 C75.3536353,71.5425469 75.0956379,71.7585448 74.7916364,71.8945455 C74.9596372,71.9825459 75.1256355,72.0925448 75.2896364,72.2245455 C75.4536372,72.3565461 75.5976357,72.5085446 75.7216364,72.6805455 C75.845637,72.8525463 75.945636,73.0425444 76.0216364,73.2505455 C76.0976367,73.4585465 76.1356364,73.6865442 76.1356364,73.9345455 L76.1356364,73.9345455 Z M74.5036364,73.8385455 C74.5036364,73.6385445 74.4616368,73.4585463 74.3776364,73.2985455 C74.2936359,73.1385447 74.183637,73.004546 74.0476364,72.8965455 C73.9116357,72.7885449 73.7556372,72.7065457 73.5796364,72.6505455 C73.4036355,72.5945452 73.2236373,72.5665455 73.0396364,72.5665455 C72.8476354,72.5665455 72.6636372,72.5965452 72.4876364,72.6565455 C72.3116355,72.7165458 72.155637,72.8025449 72.0196364,72.9145455 C71.8836357,73.026546 71.7756368,73.1605447 71.6956364,73.3165455 C71.615636,73.4725462 71.5756364,73.6465445 71.5756364,73.8385455 C71.5756364,74.0305464 71.6176359,74.2045447 71.7016364,74.3605455 C71.7856368,74.5165462 71.8956357,74.6505449 72.0316364,74.7625455 C72.167637,74.874546 72.3256355,74.9605452 72.5056364,75.0205455 C72.6856373,75.0805458 72.8676354,75.1105455 73.0516364,75.1105455 C73.2436373,75.1105455 73.4256355,75.0785458 73.5976364,75.0145455 C73.7696372,74.9505451 73.9236357,74.862546 74.0596364,74.7505455 C74.195637,74.6385449 74.303636,74.5045462 74.3836364,74.3485455 C74.4636368,74.1925447 74.5036364,74.0225464 74.5036364,73.8385455 L74.5036364,73.8385455 Z M71.8396364,70.3465455 C71.8396364,70.5145463 71.875636,70.6605448 71.9476364,70.7845455 C72.0196367,70.9085461 72.1136358,71.012545 72.2296364,71.0965455 C72.3456369,71.1805459 72.4736357,71.2445452 72.6136364,71.2885455 C72.7536371,71.3325457 72.8956356,71.3545455 73.0396364,71.3545455 C73.1836371,71.3545455 73.3276356,71.3325457 73.4716364,71.2885455 C73.6156371,71.2445452 73.7456358,71.1785459 73.8616364,71.0905455 C73.9776369,71.002545 74.071636,70.8965461 74.1436364,70.7725455 C74.2156367,70.6485448 74.2516364,70.5025463 74.2516364,70.3345455 C74.2516364,70.038544 74.1316376,69.8025463 73.8916364,69.6265455 C73.6516352,69.4505446 73.367638,69.3625455 73.0396364,69.3625455 C72.7116347,69.3625455 72.4296375,69.4525446 72.1936364,69.6325455 C71.9576352,69.8125464 71.8396364,70.050544 71.8396364,70.3465455 L71.8396364,70.3465455 Z M77.0596364,72.5665455 C77.0596364,72.1505434 77.1396356,71.7625473 77.2996364,71.4025455 C77.4596372,71.0425437 77.677635,70.7285468 77.9536364,70.4605455 C78.2296377,70.1925441 78.5576345,69.9825462 78.9376364,69.8305455 C79.3176383,69.6785447 79.7276342,69.6025455 80.1676364,69.6025455 C80.6476388,69.6025455 81.0816344,69.6905446 81.4696364,69.8665455 C81.8576383,70.0425463 82.187635,70.2985438 82.4596364,70.6345455 C82.7316377,70.9705471 82.9416356,71.380543 83.0896364,71.8645455 C83.2376371,72.3485479 83.3116364,72.8985424 83.3116364,73.5145455 C83.3116364,74.2905493 83.2336371,74.9765425 83.0776364,75.5725455 C82.9216356,76.1685484 82.7016378,76.6685434 82.4176364,77.0725455 C82.1336349,77.4765475 81.7876384,77.7825444 81.3796364,77.9905455 C80.9716343,78.1985465 80.5156389,78.3025455 80.0116364,78.3025455 C79.4756337,78.3025455 78.9796386,78.1865466 78.5236364,77.9545455 C78.0676341,77.7225443 77.6836379,77.3905476 77.3716364,76.9585455 L78.2956364,75.9505455 C78.4876373,76.254547 78.7356348,76.4905446 79.0396364,76.6585455 C79.3436379,76.8265463 79.6756346,76.9105455 80.0356364,76.9105455 C80.571639,76.9105455 80.9976348,76.6985476 81.3136364,76.2745455 C81.6296379,75.8505433 81.7956363,75.2505493 81.8116364,74.4745455 C81.6516356,74.7625469 81.4156379,74.9905446 81.1036364,75.1585455 C80.7916348,75.3265463 80.4316384,75.4105455 80.0236364,75.4105455 C79.5996342,75.4105455 79.2076382,75.3385462 78.8476364,75.1945455 C78.4876346,75.0505447 78.1756377,74.8505467 77.9116364,74.5945455 C77.647635,74.3385442 77.4396371,74.0365472 77.2876364,73.6885455 C77.1356356,73.3405437 77.0596364,72.9665475 77.0596364,72.5665455 L77.0596364,72.5665455 Z M80.1676364,70.9585455 C79.9516353,70.9585455 79.7496373,71.000545 79.5616364,71.0845455 C79.3736354,71.1685459 79.2076371,71.2845447 79.0636364,71.4325455 C78.9196356,71.5805462 78.8056368,71.7525445 78.7216364,71.9485455 C78.6376359,72.1445464 78.5956364,72.3505444 78.5956364,72.5665455 C78.5956364,72.7825465 78.6376359,72.9845445 78.7216364,73.1725455 C78.8056368,73.3605464 78.9176357,73.5265447 79.0576364,73.6705455 C79.1976371,73.8145462 79.3636354,73.9265451 79.5556364,74.0065455 C79.7476373,74.0865459 79.9516353,74.1265455 80.1676364,74.1265455 C80.3836374,74.1265455 80.5876354,74.0865459 80.7796364,74.0065455 C80.9716373,73.9265451 81.1376357,73.8145462 81.2776364,73.6705455 C81.4176371,73.5265447 81.5296359,73.3605464 81.6136364,73.1725455 C81.6976368,72.9845445 81.7396364,72.7825465 81.7396364,72.5665455 C81.7396364,72.3505444 81.6976368,72.1445464 81.6136364,71.9485455 C81.5296359,71.7525445 81.4156371,71.5825462 81.2716364,71.4385455 C81.1276356,71.2945447 80.9616373,71.1785459 80.7736364,71.0905455 C80.5856354,71.002545 80.3836374,70.9585455 80.1676364,70.9585455 L80.1676364,70.9585455 Z" sketch:type="MSShapeGroup"></path></g></g></svg>